# AST/ASF file generated using VICON BodyLanguage
# -----------------------------------------------
:version 1.10
:name VICON
:units
  mass 1.0
  length 0.45
  angle deg
:documentation
   .ast/.asf automatically generated from VICON data using
   VICON BodyBuilder and BodyLanguage model FoxedUp or BRILLIANT.MOD
:root
   order TX TY TZ RX RY RZ
   axis XYZ
   position 0 0 0  
   orientation 0 0 0 
:bonedata
  begin
     id 1 
     name lhipjoint
     direction 0.645893 -0.654526 0.392961 
     length 2.38111 
     axis 0 0 0  XYZ
  end
  begin
     id 2 
     name lfemur
     direction 0.34202 -0.939693 0  
     length 6.6822  
     axis 0 0 20  XYZ
    dof rx ry rz
    limits (-160.0 20.0)
           (-70.0 70.0)
           (-60.0 70.0)
  end
  begin
     id 3 
     name ltibia
     direction 0.34202 -0.939693 0   
     length 6.93904   
     axis 0 0 20   XYZ
    dof rx
    limits (-10.0 170.0)
  end
  begin
     id 4 
     name lfoot
     direction 0.0694967 -0.190941 0.979138   
     length 2.13616   
     axis -90 7.62852e-016 20   XYZ
    dof rx rz
    limits (-45.0 90.0)
           (-70.0 20.0)
  end
  begin
     id 5 
     name ltoes
     direction 1.535e-011 -4.2202e-011 1   
     length 1.07536   
     axis -90 7.62852e-016 20   XYZ
    dof rx
    limits (-90.0 20.0)
  end
  begin
     id 6 
     name rhipjoint
     direction -0.700219 -0.612087 0.367481   
     length 2.54621  
     axis 0 0 0  XYZ 
  end
  begin
     id 7 
     name rfemur
     direction -0.34202 -0.939693 0   
     length 6.55353   
     axis 0 0 -20   XYZ
    dof rx ry rz
    limits (-160.0 20.0)
           (-70.0 70.0)
           (-70.0 60.0)
  end
  begin
     id 8 
     name rtibia
     direction -0.34202 -0.939693 0   
     length 6.8736   
     axis 0 0 -20   XYZ
    dof rx
    limits (-10.0 170.0)
 end
 begin
     id 9 
     name rfoot
     direction -0.0679995 -0.186827 0.980037   
     length 2.1218  
     axis -90 -7.62852e-016 -20   XYZ
    dof rx rz
    limits (-45.0 90.0)
           (-20.0 70.0)
  end
  begin
     id 10 
     name rtoes
     direction -1.53589e-011 -4.21772e-011 1   
     length 1.06864   
     axis -90 -7.62852e-016 -20   XYZ
    dof rx
    limits (-90.0 20.0)
  end
  begin
     id 11 
     name lowerback
     direction -0.0416607 0.996347 -0.0745409   
     length 2.12205   
     axis 0 0 0   XYZ
    dof rx ry rz
    limits (-20.0 45.0)
           (-30.0 30.0)
           (-30.0 30.0)
  end
  begin
     id 12 
     name upperback
     direction -0.000153993 0.999276 -0.0380568   
     length 2.12759   
     axis 0 0 0   XYZ
    dof rx ry rz
    limits (-20.0 45.0)
           (-30.0 30.0)
           (-30.0 30.0)
  end
  begin
     id 13 
     name thorax
     direction 0.0187671 0.999821 -0.00241421   
     length 2.13704   
     axis 0 0 0   XYZ
    dof rx ry rz
    limits (-20.0 45.0)
           (-30.0 30.0)
           (-30.0 30.0)
  end
  begin
     id 14 
     name lowerneck
     direction 0.0268157 0.964865 0.261374   
     length 1.65253   
     axis 0 0 0   XYZ
    dof rx ry rz
    limits (-20.0 45.0)
           (-30.0 30.0)
           (-30.0 30.0)
  end
  begin
     id 15 
     name upperneck
     direction 0.00263774 0.939908 -0.341418   
     length 1.72375   
     axis 0 0 0   XYZ
    dof rx ry rz
    limits (-20.0 45.0)
           (-30.0 30.0)
           (-30.0 30.0)
  end
  begin
     id 16
     name head
     direction -0.00526001 0.989001 -0.147818  
     length 1.74878  
     axis 0 0 0   XYZ
    dof rx ry rz
    limits (-20.0 45.0)
           (-30.0 30.0)
           (-30.0 30.0)
  end
  begin
     id 17 
     name lclavicle
     direction 0.881214 0.461162 -0.103884  
     length 3.25108  
     axis 0 0 0   XYZ
    dof ry rz
    limits (-20.0 10.0)
           (0.0 20.0)
  end
  begin
     id 18 
     name lhumerus
     direction 1 -4.4899e-011 3.38092e-027   
     length 4.87408   
     axis 180 -30 -90   XYZ
    dof rx ry rz
    limits (-60.0 90.0)
           (-90.0 90.0)
           (-90.0 90.0)
  end
  begin
     id 19
     name lradius
     direction 1 -4.48931e-011 9.96288e-027   
     length 2.76729   
     axis 180 -30 -90   XYZ
    dof rx
    limits (-10.0 170.0)
  end
  begin
     id 20
     name lwrist
     direction 1 -4.4896e-011 1.50617e-026   
     length 1.38364   
     axis -9.31234e-015 90 90   XYZ
    dof ry
    limits (-180.0 0.0)
 end
  begin
     id 21 
     name lhand
     direction 1 -4.49038e-011 3.01286e-026   
     length 0.98922   
     axis -1.92217e-014 90 90   XYZ
    dof rx rz
    limits (-90.0 90.0)
           (-45.0 45.0)
  end
  begin
     id 22 
     name lfingers
     direction 1 -4.49051e-011 6.02588e-026   
     length 0.797535   
     axis -3.84436e-014 90 90   XYZ
    dof rx
    limits (0.0 90.0)
  end
  begin
     id 23
     name lthumb
     direction 0.707107 -6.34901e-011 0.707107   
     length 1.14511   
     axis -90 45 2.19363e-014   XYZ
    dof rx rz
    limits (-45.0 45.0)
           (-45.0 45.0)
  end
  begin
     id 24 
     name rclavicle
     direction -0.893894 0.441652 -0.0767889   
     length 3.29361  
     axis 0 0 0   XYZ 
    dof ry rz
    limits (-10.0 20.0)
           (-20.0 0.0)
  end
  begin
     id 25 
     name rhumerus
     direction -1 -4.48945e-011 8.0491e-028  
     length 4.71404   
     axis 180 30 90   XYZ
    dof rx ry rz
    limits (-90.0 60.0)
           (-90.0 90.0)
           (-90.0 90.0)
  end
  begin
     id 26 
     name rradius
     direction -1 -4.48986e-011 9.27795e-027   
     length 2.83468   
     axis 180 30 90   XYZ
    dof rx
    limits (-10.0 170.0)
  end
  begin
     id 27 
     name rwrist
     direction -1 -4.49029e-011 1.5064e-026   
     length 1.41734   
     axis -9.31234e-015 -90 -90   XYZ
    dof ry
    limits (-180.0 0.0)
  end
  begin
     id 28
     name rhand
     direction -1 -4.48857e-011 3.01165e-026   
     length 0.868195   
     axis -1.92217e-014 -90 -90   XYZ
    dof rx rz
    limits (-90.0 90.0)
           (-45.0 45.0)
  end
  begin
     id 29
     name rfingers
     direction -1 -4.49048e-011 6.02585e-026   
     length 0.699961   
     axis -3.84436e-014 -90 -90   XYZ
    dof rx
    limits (0.0 90.0)
  end
  begin
     id 30
     name rthumb
     direction -0.707107 -6.34854e-011 0.707107   
     length 1.00501   
     axis -90 -45 -2.19363e-014   XYZ
    dof rx rz
    limits (-45.0 45.0)
           (-45.0 45.0)
  end
:hierarchy
  begin
    root lhipjoint rhipjoint lowerback
    lhipjoint lfemur
    lfemur ltibia
    ltibia lfoot
    lfoot ltoes
    rhipjoint rfemur
    rfemur rtibia
    rtibia rfoot
    rfoot rtoes
    lowerback upperback
    upperback thorax
    thorax lowerneck lclavicle rclavicle
    lowerneck upperneck
    upperneck head
    lclavicle lhumerus
    lhumerus lradius
    lradius lwrist
    lwrist lhand lthumb
    lhand lfingers
    rclavicle rhumerus
    rhumerus rradius
    rradius rwrist
    rwrist rhand rthumb
    rhand rfingers
  end

#!OML:ASF H:\ManfredObstacles\Project 1\Capture day 2\Session 1\male.ASF
:FULLY-SPECIFIED
:DEGREES
167
root 1.85687 16.6844 -25.2637 -167.61 -4.33078 -180.344
lowerback -2.75087 4.18057 -2.53152
upperback 0.271878 5.649 -2.32424
thorax 1.80661 2.78282 -0.734813
lowerneck -36.1175 -4.22187 -1.8276
upperneck 37.0035 -8.39176 3.24787
head 21.2446 -3.21787 -0.49861
rclavicle -2.43511e-014 3.97569e-015
rhumerus -41.7558 23.8299 -99.5166
rradius 104.417
rwrist 8.21251
rhand -13.728 1.04262
rfingers 7.12502
rthumb 12.3914 -28.5701
lclavicle -2.43511e-014 3.97569e-015
lhumerus -64.5005 -23.7844 95.7474
lradius 111.685
lwrist -20.052
lhand -12.5275 0.733438
lfingers 7.12502
lthumb 13.5486 30.2726
rfemur 1.84694 2.94799 25.6832
rtibia 20.8665
rfoot 15.8372 -11.5617
rtoes -28.5444
lfemur -38.6825 -6.28303 -18.5259
ltibia 47.4835
lfoot 10.3807 15.6142
ltoes -4.61406
168
root 1.84341 16.7468 -25.5935 -167.237 -4.62775 -180.656
lowerback -3.18826 4.32805 -2.80404
upperback 0.222729 5.86671 -2.51247
thorax 1.99256 2.88277 -0.735337
lowerneck -36.3796 -4.56899 -2.15279
upperneck 36.9534 -8.78775 3.45851
head 21.3363 -3.35995 -0.450305
rclavicle -4.47266e-015 -1.70955e-014
rhumerus -41.6726 24.1639 -99.4404
rradius 105.049
rwrist 8.20858
rhand -13.4681 1.16663
rfingers 7.12502
rthumb 12.642 -28.4308
lclavicle -4.47266e-015 -1.70955e-014
lhumerus -64.6601 -24.0899 95.4976
lradius 112.005
lwrist -20.1248
lhand -12.5183 0.709245
lfingers 7.12502
lthumb 13.5575 30.2479
rfemur 3.02812 2.67182 25.3869
rtibia 19.5011
rfoot 18.1531 -11.3928
rtoes -27.67
lfemur -38.6584 -6.97899 -18.6392
ltibia 43.4351
lfoot 10.3808 14.2833
ltoes -4.95451
169
root 1.82841 16.8003 -25.9244 -166.892 -4.87377 -180.947
lowerback -3.63536 4.46767 -3.06121
upperback 0.221092 6.07889 -2.6859
thorax 2.23228 2.97861 -0.724421
lowerneck -36.764 -4.90626 -2.45548
upperneck 36.9004 -9.14248 3.62058
head 21.4524 -3.48416 -0.421513
rclavicle -1.76918e-014 -3.57812e-015
rhumerus -41.5429 24.4989 -99.3247
rradius 105.672
rwrist 8.14059
rhand -13.1753 1.2563
rfingers 7.12502
rthumb 12.9242 -28.3235
lclavicle -1.76918e-014 -3.57812e-015
lhumerus -64.683 -24.3941 95.2258
lradius 112.301
lwrist -20.2017
lhand -12.5104 0.715765
lfingers 7.12502
lthumb 13.5651 30.2539
rfemur 4.14116 2.37747 25.0887
rtibia 18.3539
rfoot 20.3276 -11.2535
rtoes -26.4828
lfemur -38.5319 -7.62877 -18.7343
ltibia 39.4859
lfoot 10.4994 12.7934
ltoes -5.38381
170
root 1.81237 16.8443 -26.2566 -166.596 -5.05714 -181.183
lowerback -4.05458 4.58449 -3.29296
upperback 0.143044 6.25704 -2.84296
thorax 2.37809 3.05867 -0.716874
lowerneck -36.8987 -5.15502 -2.68003
upperneck 36.8928 -9.43261 3.75032
head 21.5254 -3.59274 -0.402608
rclavicle 1.32192e-014 3.18055e-014
rhumerus -41.6701 24.8245 -99.383
rradius 106.305
rwrist 8.00494
rhand -12.8911 1.32806
rfingers 7.12502
rthumb 13.1982 -28.2342
lclavicle 1.32192e-014 3.18055e-014
lhumerus -64.8688 -24.6275 94.9817
lradius 112.607
lwrist -20.2917
lhand -12.4994 0.748906
lfingers 7.12502
lthumb 13.5757 30.2863
rfemur 5.17424 2.1071 24.8289
rtibia 17.4812
rfoot 22.3766 -11.1664
rtoes -25.021
lfemur -38.3117 -8.20621 -18.784
ltibia 35.7447
lfoot 10.6991 11.2511
ltoes -6.12099
171
root 1.79481 16.8767 -26.5889 -166.363 -5.17888 -181.346
lowerback -4.44123 4.69434 -3.46851
upperback 0.0467071 6.42309 -2.96808
thorax 2.48875 3.13416 -0.710508
lowerneck -36.968 -5.33434 -2.8487
upperneck 36.98 -9.66466 3.83614
head 21.6358 -3.68407 -0.401137
rclavicle -3.12092e-014 5.04913e-014
rhumerus -41.9058 25.1235 -99.5109
rradius 106.911
rwrist 7.84092
rhand -12.6398 1.3798
rfingers 7.12502
rthumb 13.4404 -28.1666
lclavicle -3.12092e-014 5.04913e-014
lhumerus -65.0856 -24.8354 94.7908
lradius 112.898
lwrist -20.3434
lhand -12.4999 0.815372
lfingers 7.12502
lthumb 13.5752 30.3528
rfemur 6.09901 1.86282 24.6155
rtibia 16.9421
rfoot 24.2863 -11.0758
rtoes -23.3536
lfemur -38.0255 -8.66589 -18.7992
ltibia 32.3441
lfoot 10.879 9.72491
ltoes -7.30411
172
root 1.77526 16.8963 -26.92 -166.203 -5.24982 -181.422
lowerback -4.78089 4.79181 -3.56521
upperback -0.0610603 6.56762 -3.05564
thorax 2.56546 3.20118 -0.713636
lowerneck -36.9902 -5.43899 -2.9558
upperneck 37.1569 -9.83129 3.87688
head 21.7841 -3.75399 -0.41648
rclavicle -4.07509e-015 1.74931e-014
rhumerus -42.2363 25.3922 -99.7185
rradius 107.481
rwrist 7.62856
rhand -12.4267 1.41984
rfingers 7.12502
rthumb 13.6458 -28.1129
lclavicle -4.07509e-015 1.74931e-014
lhumerus -65.3126 -25.012 94.6558
lradius 113.162
lwrist -20.3298
lhand -12.5245 0.90576
lfingers 7.12502
lthumb 13.5515 30.4448
rfemur 6.88432 1.64836 24.4622
rtibia 16.8047
rfoot 26.0144 -11.0159
rtoes -21.5969
lfemur -37.6986 -8.97659 -18.796
ltibia 29.4134
lfoot 10.9948 8.55365
ltoes -9.22716
173
root 1.7541 16.9025 -27.2495 -166.137 -5.26552 -181.385
lowerback -5.05908 4.88427 -3.56018
upperback -0.125974 6.70191 -3.08472
thorax 2.65662 3.26569 -0.715318
lowerneck -37.1118 -5.5032 -3.05259
upperneck 37.4158 -9.94644 3.89566
head 22.0115 -3.80344 -0.434428
rclavicle 2.13694e-014 -8.74653e-015
rhumerus -42.5259 25.6372 -99.9264
rradius 107.968
rwrist 7.41664
rhand -12.2767 1.4573
rfingers 7.12502
rthumb 13.7903 -28.0656
lclavicle 2.13694e-014 -8.74653e-015
lhumerus -65.4195 -25.1683 94.5748
lradius 113.365
lwrist -20.2575
lhand -12.5996 1.01369
lfingers 7.12502
lthumb 13.4791 30.5575
rfemur 7.50446 1.4819 24.3988
rtibia 17.1423
rfoot 27.5128 -10.9769
rtoes -19.9131
lfemur -37.3491 -9.10373 -18.7677
ltibia 27.0727
lfoot 10.9906 7.67451
ltoes -11.7912
174
root 1.73232 16.8944 -27.5769 -166.173 -5.21765 -181.258
lowerback -5.26355 4.98373 -3.47994
upperback -0.16573 6.84056 -3.06065
thorax 2.73488 3.33503 -0.707879
lowerneck -37.2053 -5.53922 -3.13514
upperneck 37.6718 -10.0076 3.87406
head 22.2238 -3.83915 -0.459754
rclavicle -1.64991e-014 -1.98785e-014
rhumerus -42.8234 25.8005 -100.136
rradius 108.368
rwrist 7.20626
rhand -12.1823 1.50609
rfingers 7.12502
rthumb 13.8813 -28.0106
lclavicle -1.64991e-014 -1.98785e-014
lhumerus -65.4473 -25.3309 94.5761
lradius 113.5
lwrist -20.1522
lhand -12.7196 1.13771
lfingers 7.12502
lthumb 13.3635 30.6892
rfemur 7.93824 1.35981 24.4004
rtibia 18.0152
rfoot 28.7135 -11.0043
rtoes -18.3602
lfemur -36.9851 -9.01753 -18.7641
ltibia 25.3944
lfoot 10.9421 6.99463
ltoes -14.9108
175
root 1.71001 16.8708 -27.9017 -166.316 -5.11603 -181.057
lowerback -5.39768 5.09487 -3.33026
upperback -0.124696 6.99364 -2.98001
thorax 2.85874 3.41338 -0.680733
lowerneck -37.4007 -5.59755 -3.25764
upperneck 37.8624 -10.0302 3.83074
head 22.4176 -3.86343 -0.478303
rclavicle 9.19379e-014 -5.725e-014
rhumerus -43.0084 25.8684 -100.257
rradius 108.664
rwrist 7.00632
rhand -12.1408 1.56082
rfingers 7.12502
rthumb 13.9213 -27.9532
lclavicle 9.19379e-014 -5.725e-014
lhumerus -65.2698 -25.5207 94.6335
lradius 113.566
lwrist -20.0327
lhand -12.8731 1.27043
lfingers 7.12502
lthumb 13.2155 30.8315
rfemur 8.17963 1.28068 24.4611
rtibia 19.4587
rfoot 29.541 -11.1499
rtoes -17.0777
lfemur -36.5996 -8.74046 -18.7972
ltibia 24.3945
lfoot 10.971 6.39679
ltoes -18.1193
176
root 1.68758 16.8314 -28.2231 -166.559 -4.97546 -180.818
lowerback -5.43106 5.2195 -3.13075
upperback -0.0505435 7.15888 -2.86386
thorax 2.96233 3.49998 -0.65066
lowerneck -37.559 -5.67658 -3.44375
upperneck 38.0026 -10.0352 3.80145
head 22.5726 -3.89008 -0.471604
rclavicle 2.49475e-014 -2.0276e-014
rhumerus -43.1896 25.7759 -100.334
rradius 108.86
rwrist 6.87313
rhand -12.1434 1.62439
rfingers 7.12502
rthumb 13.9189 -27.8898
lclavicle 2.49475e-014 -2.0276e-014
lhumerus -64.9897 -25.7598 94.7803
lradius 113.569
lwrist -19.9277
lhand -13.052 1.4145
lfingers 7.12502
lthumb 13.0431 30.9867
rfemur 8.22598 1.20511 24.541
rtibia 21.4657
rfoot 29.969 -11.4318
rtoes -15.9842
lfemur -36.1733 -8.2763 -18.9102
ltibia 24.0162
lfoot 10.9608 5.6233
ltoes -20.7936
177
root 1.66451 16.776 -28.5402 -166.88 -4.81136 -180.583
lowerback -5.37856 5.34425 -2.91194
upperback 0.0546222 7.32026 -2.72811
thorax 3.05029 3.58572 -0.61769
lowerneck -37.6498 -5.77738 -3.68489
upperneck 38.0451 -10.0209 3.79235
head 22.645 -3.91723 -0.434922
rclavicle 1.19668e-013 -3.85642e-014
rhumerus -43.3617 25.5342 -100.361
rradius 108.944
rwrist 6.79962
rhand -12.1991 1.67682
rfingers 7.12502
rthumb 13.8651 -27.841
lclavicle 1.19668e-013 -3.85642e-014
lhumerus -64.606 -26.03 94.9914
lradius 113.522
lwrist -19.8693
lhand -13.2233 1.56382
lfingers 7.12502
lthumb 12.8779 31.1465
rfemur 8.07881 1.11093 24.5921
rtibia 23.9797
rfoot 29.9797 -11.8436
rtoes -15.1401
lfemur -35.6722 -7.66693 -19.127
ltibia 24.1724
lfoot 10.9731 4.84662
ltoes -21.7834
178
root 1.64092 16.7057 -28.8531 -167.264 -4.64501 -180.387
lowerback -5.22727 5.45903 -2.69487
upperback 0.150174 7.46249 -2.59834
thorax 3.07409 3.66286 -0.601955
lowerneck -37.592 -5.89183 -3.97853
upperneck 38.0026 -10.0067 3.82925
head 22.6254 -3.9521 -0.359832
rclavicle 1.14798e-013 -7.15625e-015
rhumerus -43.6174 25.1228 -100.4
rradius 108.926
rwrist 6.77781
rhand -12.3088 1.71108
rfingers 7.12502
rthumb 13.7594 -27.814
lclavicle 1.14798e-013 -7.15625e-015
lhumerus -64.1968 -26.3497 95.2621
lradius 113.419
lwrist -19.847
lhand -13.3911 1.71375
lfingers 7.12502
lthumb 12.7161 31.3066
rfemur 7.7853 0.983185 24.5835
rtibia 26.8667
rfoot 29.6434 -12.3793
rtoes -14.549
lfemur -35.0497 -7.0359 -19.4181
ltibia 24.7195
lfoot 11.061 4.21107
ltoes -20.8715
